<?xml version="1.0" encoding="UTF-8"?>
<!-- Generated by Pixelmator Pro 2.4.5 -->
<svg width="800" height="800" viewBox="0 0 800 800" xmlns="http://www.w3.org/2000/svg" xmlns:xlink="http://www.w3.org/1999/xlink">
    <path id="path1" fill="#ffffff" fill-rule="evenodd" stroke="none" d="M 172.100006 127.299988 C 166.666672 137.966675 166.666672 151.966675 166.666672 180 L 166.666672 620 C 166.666672 648 166.666672 662 172.100006 672.700012 C 176.900772 682.104065 184.555328 689.746948 193.96666 694.533325 C 204.633331 700 218.633331 700 246.666672 700 L 253.333328 700 C 281.333313 700 295.333313 700 306.033325 694.56665 C 315.449738 689.771606 323.104889 682.116455 327.899994 672.700012 C 333.333344 662.033325 333.333344 648.033325 333.333344 620 L 333.333344 180 C 333.333344 152 333.333344 138 327.899994 127.299988 C 323.104889 117.883606 315.449738 110.228455 306.033325 105.43335 C 295.366669 100 281.366669 100 253.333328 100 L 246.666672 100 C 218.666672 100 204.666656 100 193.96666 105.43335 C 184.550247 110.228455 176.895111 117.883606 172.100006 127.299988 Z M 472.100006 127.299988 C 466.666656 137.966675 466.666656 151.966675 466.666656 180 L 466.666656 620 C 466.666656 648 466.666656 662 472.133331 672.700012 C 476.925415 682.098938 484.567719 689.741272 493.966675 694.533325 C 504.633331 700 518.633362 700 546.666626 700 L 553.333374 700 C 581.333374 700 595.333374 700 606.033325 694.56665 C 615.437378 689.765869 623.080261 682.111328 627.866699 672.700012 C 633.333313 662.033325 633.333313 648.033325 633.333313 620 L 633.333313 180 C 633.333313 152 633.333313 138 627.900024 127.299988 C 623.104919 117.883606 615.449768 110.228455 606.033325 105.43335 C 595.366699 100 581.366638 100 553.333374 100 L 546.666626 100 C 518.666687 100 504.666687 100 493.966675 105.43335 C 484.562653 110.234131 476.919739 117.888672 472.133331 127.299988 Z"/>
</svg>
